<svg height="512pt" viewBox="0 0 512 512" width="512pt" xmlns="http://www.w3.org/2000/svg"><g fill="#c8fdfa"><path d="m339.976562 266.195312c-8.550781 0-15.484374-6.929687-15.484374-15.480468 0-34.851563-28.355469-63.207032-63.203126-63.207032-8.550781 0-15.484374-6.929687-15.484374-15.480468 0-8.550782 6.933593-15.484375 15.484374-15.484375 51.925782 0 94.167969 42.246093 94.167969 94.171875 0 8.550781-6.929687 15.480468-15.480469 15.480468zm0 0"/><path d="m413.59375 266.195312c-8.546875 0-15.480469-6.929687-15.480469-15.480468 0-75.449219-61.378906-136.828125-136.828125-136.828125-8.550781 0-15.480468-6.933594-15.480468-15.480469 0-8.550781 6.929687-15.484375 15.480468-15.484375 92.523438 0 167.792969 75.269531 167.792969 167.792969 0 8.550781-6.933594 15.480468-15.484375 15.480468zm0 0"/><path d="m496.515625 266.195312c-8.550781 0-15.480469-6.929687-15.480469-15.480468 0-121.171875-98.578125-219.75-219.75-219.75-8.550781 0-15.480468-6.929688-15.480468-15.480469s6.929687-15.484375 15.480468-15.484375c66.96875 0 129.925782 26.078125 177.28125 73.433594 47.351563 47.351562 73.433594 110.3125 73.433594 177.28125 0 8.550781-6.933594 15.480468-15.484375 15.480468zm0 0"/></g><path d="m438.566406 73.433594-21.96875 21.96875c39.792969 39.789062 64.4375 94.726562 64.4375 155.308594 0 8.550781 6.929688 15.484374 15.480469 15.484374s15.484375-6.933593 15.484375-15.484374c0-66.964844-26.082031-129.925782-73.433594-177.277344zm0 0" fill="#89feff"/><path d="m199.46875 110.269531-71.046875-71.03125c-13.648437-13.648437-35.867187-13.652343-49.539063 0l-25.691406 25.703125c-6.042968 6.046875-6.042968 15.847656.003906 21.890625l98.675782 98.679688c3.023437 3.023437 6.988281 4.535156 10.949218 4.535156 3.960938 0 7.921876-1.511719 10.945313-4.535156l25.703125-25.703125c13.648438-13.648438 13.652344-35.867188 0-49.539063zm0 0" fill="#45686e"/><path d="m471.996094 382.796875-71.046875-71.035156c-13.644531-13.644531-35.867188-13.648438-49.539063.003906l-25.691406 25.703125c-6.042969 6.046875-6.042969 15.847656.003906 21.894531l98.675782 98.675781c2.90625 2.902344 6.84375 4.535157 10.949218 4.535157 4.105469 0 8.042969-1.632813 10.945313-4.535157l25.703125-25.703124-.003906.003906c13.652343-13.652344 13.65625-35.871094.003906-49.542969zm0 0" fill="#2a3b3b"/><path d="m379.878906 132.121094-21.886718 21.886718c24.773437 24.773438 40.121093 58.980469 40.121093 96.703126 0 8.550781 6.933594 15.484374 15.480469 15.484374 8.550781 0 15.484375-6.933593 15.484375-15.484374 0-46.257813-18.816406-88.207032-49.199219-118.589844zm0 0" fill="#89feff"/><path d="m324.492188 250.714844c0 8.550781 6.933593 15.480468 15.484374 15.480468 8.550782 0 15.480469-6.929687 15.480469-15.480468 0-25.964844-10.5625-49.507813-27.613281-66.558594l-21.882812 21.886719c11.441406 11.445312 18.53125 27.246093 18.53125 44.671875zm0 0" fill="#89feff"/><path d="m325.722656 337.464844-19.503906 19.503906c-5.578125 5.570312-14.652344 5.570312-20.222656.003906l-131.742188-131.75c-2.699218-2.699218-4.183594-6.285156-4.183594-10.101562 0-3.8125 1.484376-7.398438 4.1875-10.101563l19.507813-19.507812-120.570313-120.574219-10.300781 10.300781c-57.191406 57.191407-57.191406 150.25 0 207.441407l185.65625 185.660156c28.597657 28.59375 66.160157 42.890625 103.722657 42.890625s75.125-14.296875 103.722656-42.894531l10.300781-10.300782zm0 0" fill="#fc5356"/><path d="m325.722656 337.464844-19.503906 19.503906c-5.578125 5.570312-14.652344 5.574219-20.222656.003906l-65.484375-65.488281-84.40625 84.410156 92.445312 92.445313c28.59375 28.59375 66.15625 42.890625 103.71875 42.890625 37.566407 0 75.125-14.296875 103.722657-42.894531l10.300781-10.300782zm0 0" fill="#f70b57"/></svg>